<?xml version="1.0" encoding="utf-8"?>
<!-- Svg Vector Icons : http://www.onlinewebfonts.com/icon -->
<!DOCTYPE svg PUBLIC "-//W3C//DTD SVG 1.1//EN" "http://www.w3.org/Graphics/SVG/1.1/DTD/svg11.dtd">
<svg version="1.1" xmlns="http://www.w3.org/2000/svg" xmlns:xlink="http://www.w3.org/1999/xlink" x="0px" y="0px" viewBox="0 0 1000 1000" enable-background="new 0 0 1000 1000" xml:space="preserve">
<metadata> Svg Vector Icons : http://www.onlinewebfonts.com/icon </metadata>
<g><g transform="translate(0.000000,511.000000) scale(0.100000,-0.100000)"><path d="M756.8,4162.1c-146-65.2-278.9-185-359.7-331c-73-135.5-75.6-148.5-83.4-573.4c-10.4-534.3,15.6-654.2,190.3-849.7c65.2-70.4,117.3-151.2,117.3-177.2c0-28.7-33.9-216.3-73-419.6c-119.9-594.2-73-599.5,513.5-46.9l427.4,404h776.7c920,0,977.4,13,1183.3,239.8c174.6,195.5,200.7,315.4,190.3,849.7c-7.8,424.9-10.4,437.9-83.4,573.4c-83.4,148.6-213.7,268.5-364.9,331C3055.6,4219.4,887.1,4216.8,756.8,4162.1z M3167.7,3943.1c62.5-36.5,143.3-109.5,182.4-166.8c70.4-101.7,73-114.7,80.8-523.9c10.4-458.7-7.8-565.6-117.3-695.9c-145.9-172-190.3-179.8-1092.1-179.8H1411L1090.4,2077C915.8,1910.2,767.2,1779.9,762,1785c-5.2,5.2,15.6,135.5,44.3,289.3l52.1,281.5l-140.7,135.5c-190.3,177.2-205.9,239.8-195.5,761.1c7.8,406.6,10.4,422.2,78.2,521.3c78.2,109.5,190.3,190.3,318,221.5c44.3,10.4,544.7,18.2,1110.3,15.6l1029.5-5.2L3167.7,3943.1z" fill="white"/><path d="M6595.1,4162.1c-146-65.2-278.9-185-359.7-331c-73-135.5-75.6-148.5-83.4-573.4c-10.4-534.3,15.6-654.2,190.3-849.7c205.9-226.8,263.2-239.8,1183.3-239.8h776.7l427.4-404c583.8-549.9,636-547.3,516.1,33.9c-41.7,198.1-73,385.8-75.6,419.6c0,36.5,46.9,112.1,117.3,190.3c174.6,195.5,200.7,315.4,190.3,849.7c-7.8,424.9-10.4,437.9-83.4,573.4c-83.4,148.6-213.7,268.5-364.9,331C8893.9,4219.4,6725.4,4216.8,6595.1,4162.1z M9006,3943.1c62.5-36.5,143.3-109.5,182.5-166.8c70.4-101.7,73-114.7,80.8-523.9c10.4-523.9-5.2-583.8-195.5-763.7l-145.9-135.5l54.7-278.9c31.3-153.8,52.1-284.1,46.9-289.3c-5.2-5.2-153.8,125.1-328.4,291.9l-320.6,299.7h-810.6c-901.8,0-946.1,7.8-1092.1,179.8c-109.5,130.3-127.7,237.2-117.3,695.9c7.8,406.6,10.4,422.2,78.2,521.3c78.2,109.5,190.3,190.3,318,221.5c44.3,10.4,544.7,18.2,1110.3,15.6l1029.5-5.2L9006,3943.1z" fill="white"/><path d="M1781.1,1448.8c-15.6-2.6-70.4-13-125.1-23.5c-122.5-20.8-294.5-169.4-359.7-312.8c-91.2-200.7-49.5-427.4,112.1-602.1l106.9-114.7h-88.6c-125.1,0-336.2-104.3-432.7-216.3C853.2,17.9,842.8-42,842.8-816.1c0-1167.7,49.5-1264.1,667.2-1326.6c198.1-20.9,325.8-46.9,349.3-70.4c20.8-20.9,112.1-289.3,205.9-596.9c153.8-513.5,174.6-565.6,260.6-643.8c83.4-78.2,106.9-86,255.4-86c252.8,0,401.4,114.7,430.1,331c15.6,114.7-106.9,1011.3-161.6,1172.9c-73,221.5-179.8,336.2-417,450.9c-119.9,59.9-224.2,125.1-232,146c-7.8,23.4-15.6,99-15.6,172v130.3l99-20.8c52.1-10.4,226.8-20.9,388.4-23.5c198.1,0,302.3-10.4,323.2-31.3c18.2-18.2,83.4-33.9,146-33.9h112.1v-1339.7c0-1443.9-2.6-1412.7,135.5-1391.8l59.9,7.8l13,1355.3l13,1355.3h417h417l13-1355.3l13-1355.3l59.9-7.8c138.1-20.8,135.5-52.1,135.5,1391.8v1337.1l99,7.8c78.2,5.2,99.1,18.3,104.3,70.4c5.2,33.9,0,70.4-13,83.4s-351.9,26.1-758.4,26.1l-732.4,2.6l28.7,62.6l28.7,62.5l521.3,5.2l521.3,7.8l242.4,638.6c132.9,351.9,242.4,651.6,245,664.6c0,41.7-161.6,96.4-182.4,62.6c-10.4-13-114.7-284.1-234.6-596.9l-216.3-573.4h-427.5h-424.8l-114.7,117.3l-112.1,119.9l-336.2-7.9c-242.4-5.2-354.5,2.6-398.8,28.7c-39.1,20.8-106.9,135.5-190.3,310.2c-96.4,203.3-164.2,310.2-250.2,391c-106.9,99.1-112.1,109.5-54.7,109.5c104.3,2.6,271.1,91.2,354.5,195.5c208.5,252.8,169.4,583.8-96.4,797.6C2052.2,1404.5,1851.5,1467.1,1781.1,1448.8z M2047,1115.2c73-80.8,86-112.1,86-226.8c0-114.7-10.4-143.4-86-219c-52.1-52.1-125.1-93.8-182.4-104.2c-310.2-59.9-516.1,320.6-299.7,552.6c83.4,91.2,145.9,112.1,281.5,101.7C1937.5,1211.6,1979.2,1190.8,2047,1115.2z M1702.9,101.3c88.6-49.5,122.5-96.4,234.6-325.8c73-148.6,169.4-310.2,216.3-359.7c122.5-127.7,315.4-177.2,609.9-153.8c245,18.3,307.5,0,307.5-93.8c0-86-91.2-106.9-453.5-96.4c-299.7,7.8-354.5,15.6-443.1,67.8c-119.9,70.4-216.3,60-237.2-28.7c-10.4-33.9-5.2-198.1,7.8-364.9c20.9-284.1,28.7-312.8,93.8-380.5c39.1-41.7,140.7-101.7,226.8-130.3c195.5-73,297.1-159,346.6-297.1c20.9-59.9,70.4-341.4,109.5-625.5l70.4-513.5l-59.9-65.2c-73-78.2-182.4-86-247.6-13c-26.1,28.7-119.9,297.1-208.5,594.2c-88.6,297.1-177.2,568.2-192.9,599.5c-49.5,93.8-172,135.5-510.9,174.6c-177.2,18.2-344,46.9-372.7,62.6c-28.7,15.6-65.2,65.2-83.4,112.1c-41.7,112.1-62.5,802.8-39.1,1287.6c18.3,354.5,23.5,383.1,86,458.7C1296.3,166.5,1517.9,205.6,1702.9,101.3z" fill="#fa4229"/><path d="M8260.6,1433.2c-338.8-59.9-542.1-445.7-396.2-763.7c54.7-125.1,198.1-255.4,325.8-302.3l91.2-33.9l-114.7-99.1c-80.8-70.4-148.6-172-242.4-364.9c-182.5-377.9-174.6-375.3-570.8-367.5c-362.3,7.8-440.5-13-521.3-148.6l-46.9-78.2l-417,5.2l-417,7.8l-208.5,547.3c-114.7,302.4-216.3,568.2-226.8,591.7c-15.6,36.5-31.3,39.1-112.1,15.6c-75.6-26.1-88.6-39.1-75.6-83.4c10.4-31.3,122.5-333.6,252.8-672.5l234.6-620.3h484.8H6788l60-80.8c33.9-44.3,99-96.4,148.6-117.3c104.2-44.3,552.6-59.9,776.7-28.7l153.8,23.5l-15.6-145.9c-7.8-78.2-23.5-159-31.3-174.6c-10.4-15.6-91.2-59.9-179.9-101.7c-370.1-164.2-450.9-312.8-549.9-990.4c-39.1-265.9-70.4-536.9-67.8-604.7c0-252.8,140.7-385.7,406.6-385.7c179.8,0,302.3,59.9,359.7,174.6c20.8,39.1,75.6,205.9,122.5,367.5c46.9,159,91.2,286.7,99,278.9c5.2-5.2-20.8-263.2-62.5-573.4c-65.2-510.8-67.8-565.6-31.3-602.1c54.7-54.7,145.9-26.1,164.2,49.5c7.8,31.3,46.9,338.8,91.2,682.9c44.3,344,86,651.6,91.2,685.5c13,57.3,18.3,57.3,482.2,57.3h469.2l26.1-62.5c10.4-33.9,106.9-375.3,213.7-758.5c198.1-727.2,221.5-776.7,333.6-716.8c28.7,15.6,52.1,41.7,52.1,59.9c0,15.7-96.4,375.3-211.1,797.6L9477.8-2333l185.1,935.7c104.3,513.5,185,967,179.8,1006.1c-5.2,54.8-23.4,73-78.2,78.2c-57.3,7.8-78.2-5.2-93.8-52.1c-13-33.9-101.7-461.3-200.7-951.3l-177.2-894h-536.9c-549.9,2.6-654.2,31.3-218.9,62.6c302.3,20.8,484.8,75.6,552.6,164.2c143.3,177.2,198.1,677.7,164.2,1443.9c-18.3,466.5-26.1,516.1-86,622.9c-75.6,138.1-263.3,273.7-414.4,299.7l-104.3,18.3l80.8,65.2c153.8,130.3,226.8,354.5,179.8,552.6C8839.2,1310.7,8562.9,1487.9,8260.6,1433.2z M8547.3,1170c106.9-70.4,153.8-156.4,153.8-278.9c0-177.2-164.2-338.8-346.6-338.8c-91.2,0-232,104.3-286.7,208.5c-78.2,156.4-13,346.6,145.9,427.5C8331,1245.6,8443,1240.3,8547.3,1170z M8818.3,101.3C9006-2.9,9013.8-44.6,9019-857.8c7.8-1011.3,15.6-998.2-495.2-1055.6c-338.8-36.5-411.8-57.3-484.8-138.1c-26.1-28.7-122.5-299.7-213.7-599.5c-91.2-302.4-177.3-570.8-192.9-602.1c-59.9-109.5-263.2-88.6-310.2,31.3C7288.4-3128,7450-2088,7515.2-1978.6c54.7,88.6,127.7,135.5,383.1,247.6c218.9,93.8,239.8,138.1,242.4,544.7c0,409.2-15.6,432.7-213.7,331c-109.5-57.3-166.8-65.2-456.1-73c-375.3-10.4-445.7,10.4-432.6,119.9l7.8,70.4l245-7.8c513.4-15.6,635.9,57.3,849.7,503c127.7,268.5,148.6,297.1,252.8,349.3C8536.9,176.9,8685.4,176.9,8818.3,101.3z" fill="#fa4229"/><path d="M170.4-326.1c-36.5-33.9-15.6-169.4,166.8-1079L522.2-2333l-211.1-766.2C196.4-3521.5,100-3881.2,100-3896.9c0-18.2,23.5-44.3,52.1-59.9c112.1-59.9,135.5-10.4,336.2,735c106.9,391,203.3,732.4,216.3,758.4c20.8,39.1,70.4,44.3,490,44.3c422.2,0,466.5-5.2,479.6-44.3c5.2-26.1,49.5-349.2,96.4-722c96.4-742.8,114.7-802.8,245-708.9c46.9,33.9,46.9,57.3-49.5,813.2c-86,672.4-106.9,784.5-151.2,826.2c-46.9,39.1-114.7,44.3-581.2,44.3H707.3l-177.2,894c-99,490-187.7,917.4-198.1,951.3C311.1-310.5,209.5-284.4,170.4-326.1z" fill="#fa4229"/><path d="M5346.6-1058.5c-174.6-7.8-232-46.9-203.3-135.5c10.4-33.9,39.1-52.1,86-52.1c39.1,0,96.4-7.8,130.3-15.6l57.3-15.7v-1321.4c0-993,7.8-1329.3,31.3-1352.7c26.1-26.1,138.1-44.3,156.4-23.5c5.2,2.6,13,615.1,20.8,1360.5l13,1355.3l312.8,7.8c172,2.6,362.3,0,422.2-10.4l112.1-13l5.2-1347.5l7.8-1347.5h78.2h78.2l13,1355.3l13,1355.3l104.3,13c78.2,10.4,106.9,26.1,112.1,65.2c13,117.3-2.6,119.9-714.1,125.1C5813.2-1053.3,5435.3-1053.3,5346.6-1058.5z" fill="#fa4229"/></g></g>
</svg>
