<?xml version="1.0" encoding="utf-8"?>
<!-- Svg Vector Icons : http://www.onlinewebfonts.com/icon -->
<!DOCTYPE svg PUBLIC "-//W3C//DTD SVG 1.1//EN" "http://www.w3.org/Graphics/SVG/1.1/DTD/svg11.dtd">
<svg version="1.1" xmlns="http://www.w3.org/2000/svg" xmlns:xlink="http://www.w3.org/1999/xlink" x="0px" y="0px" viewBox="0 0 1000 1000" enable-background="new 0 0 1000 1000" xml:space="preserve">
<metadata> Svg Vector Icons : http://www.onlinewebfonts.com/icon </metadata>
<g><path d="M500,10C229.4,10,10,229.4,10,500c0,150.5,67.9,285.2,174.7,375.1l44.7-111.3c-44.9-9.8-94.9-54.4-94.9-100.4V365.4c0-42,42.1-69.1,111.6-69.1h388.9c53.7,0,64.9,23,64.9,69.1v297.9c0,25.4-1.8,101.1-64.9,101.1H403.7L193.3,882.2C277.3,949.6,383.9,990,500,990c270.6,0,490-219.4,490-490C990,229.4,770.6,10,500,10z M709,735.8l8.8-25.1l77,27l-49.6-61.5l25.8-1.5c3.6-0.2,7.1-0.7,10.5-1.5l1.1-0.2c49.8-7.4,45.8-60.2,45.3-66.2l-0.7-1.3V249.6c0-33.7-26.1-59.4-59.9-59.4H361.9c-33.7,0-58.7,25.7-58.7,59.4v16.5h-32.4v-16.5c0-48.4,42.7-90.7,91.1-90.7h405.4c48.4,0,88.9,42.3,88.9,90.7v355.2c0,27.5-7.7,79.1-59.3,92.5l77.4,96.5L709,735.8z" fill="#fa4229"/><path d="M395.4,735.4h239.5c15.4,0,32.5-9.7,32.5-72.1V365.4c0-34.8-2.5-35.6-32.5-35.6H246c-8.2,0-79.2,0.5-79.2,35.6v297.9c0,30.4,44.5,72.1,79.2,72.1h29.2l-34,85.8L395.4,735.4z" fill="#fa4229"/></g>
</svg>
